<svg id="Layer_1" data-name="Layer 1" xmlns="http://www.w3.org/2000/svg" viewBox="0 0 136.03 135.2"><defs><style>.cls-1{fill:#3c2415;}.cls-2{fill:#ee2a7b;}.cls-3{fill:none;stroke:#231f20;stroke-miterlimit:10;}</style></defs><title>car</title><g id="Car"><path class="cls-1" d="M98.88,81.5a10.45,10.45,0,0,1,2.51-.3,10.81,10.81,0,0,1,9.92,6.53,10.66,10.66,0,0,1,.88,4.27,10.8,10.8,0,0,1-21.55.94,7.3,7.3,0,0,1,0-.94,10.32,10.32,0,0,1,.1-1.48A10.8,10.8,0,0,1,98.88,81.5Z"/><path class="cls-1" d="M39,81.2A10.8,10.8,0,0,1,49.79,92a11.07,11.07,0,0,1-.08,1.3A10.8,10.8,0,0,1,28.19,92a10.67,10.67,0,0,1,.52-3.31A10.81,10.81,0,0,1,39,81.2Z"/><path class="cls-2" d="M49.71,93.3a11.07,11.07,0,0,0,.08-1.3,10.66,10.66,0,0,0-.71-3.85,10.8,10.8,0,0,0-20.37.54C20.9,85.86,16.19,82.21,16.19,78.2c0-5.54,9-10.43,22.8-13.35V64.7c7.38-18.47,19.78-32.5,32.3-32.3,10.15.16,19,9.66,35,26.73,4.71,5.05,8.37,9.49,10.86,12.66a10.54,10.54,0,0,1,2.68,5.94,9.24,9.24,0,0,1-1.07,5.57c-2.25,3.89-6.88,4.38-7.41,4.43a10.81,10.81,0,0,0-9.92-6.53,10.45,10.45,0,0,0-2.51.3,10.8,10.8,0,0,0-8.19,9,10.32,10.32,0,0,0-.1,1.48,7.3,7.3,0,0,0,0,.94c-1.55.22-3.15.42-4.78.59a164.82,164.82,0,0,1-17.07.87c-3.78,0-7.46-.12-11-.36Q53.61,93.77,49.71,93.3ZM70.4,63.4q-1-13.77-2.08-27.53A61.43,61.43,0,0,0,43.67,63.4Z"/><path class="cls-3" d="M49.71,93.3A10.8,10.8,0,0,1,28.19,92a10.67,10.67,0,0,1,.52-3.31"/><path class="cls-3" d="M111.31,87.73a10.66,10.66,0,0,1,.88,4.27,10.8,10.8,0,0,1-21.55.94"/><path class="cls-3" d="M28.71,88.69C20.9,85.86,16.19,82.21,16.19,78.2c0-5.54,9-10.43,22.8-13.35V64.7c7.38-18.47,19.78-32.5,32.3-32.3,10.15.16,19,9.66,35,26.73,4.71,5.05,8.37,9.49,10.86,12.66a10.54,10.54,0,0,1,2.68,5.94,9.24,9.24,0,0,1-1.07,5.57c-2.25,3.89-6.88,4.38-7.41,4.43a10.81,10.81,0,0,0-9.92-6.53,10.45,10.45,0,0,0-2.51.3,10.8,10.8,0,0,0-8.19,9,10.32,10.32,0,0,0-.1,1.48,7.3,7.3,0,0,0,0,.94c-1.55.22-3.15.42-4.78.59a164.82,164.82,0,0,1-17.07.87c-3.78,0-7.46-.12-11-.36q-4.17-.27-8.07-.74a11.07,11.07,0,0,0,.08-1.3,10.66,10.66,0,0,0-.71-3.85,10.8,10.8,0,0,0-20.37.54Z"/><path class="cls-3" d="M43.67,63.4H70.4q-1-13.77-2.08-27.53A61.43,61.43,0,0,0,43.67,63.4Z"/></g></svg>