<svg id="Layer_1" data-name="Layer 1" xmlns="http://www.w3.org/2000/svg" viewBox="0 0 134.4 133.58"><defs><style>.cls-1{fill:#f15a29;}.cls-2{fill:#8b5e3c;}.cls-3{fill:#00aeef;}.cls-4{fill:none;stroke:#231f20;stroke-miterlimit:10;}</style></defs><title>Artboard 4</title><polygon class="cls-1" points="122.1 54.16 113.33 54.16 21.07 54.16 12.3 54.16 67.2 12.09 122.1 54.16"/><path class="cls-2" d="M113.33,54.16v67.32H77.6V82.93H56.8v38.55H21.07V54.16ZM106.4,87V67.28H86.67V87Zm-59,0V67.28H27.63V87Z"/><rect class="cls-3" x="86.67" y="67.28" width="19.73" height="19.73"/><rect class="cls-3" x="56.8" y="82.93" width="20.8" height="38.55"/><rect class="cls-3" x="27.63" y="67.28" width="19.74" height="19.73"/><polyline class="cls-4" points="56.8 121.48 21.07 121.48 21.07 54.16"/><polyline class="cls-4" points="113.33 54.16 113.33 121.48 77.6 121.48"/><polygon class="cls-4" points="21.07 54.16 12.3 54.16 67.2 12.09 122.1 54.16 113.33 54.16 21.07 54.16"/><rect class="cls-4" x="56.8" y="82.93" width="20.8" height="38.55"/><rect class="cls-4" x="86.67" y="67.28" width="19.73" height="19.73"/><rect class="cls-4" x="27.63" y="67.28" width="19.74" height="19.73"/></svg>