<svg id="Layer_1" data-name="Layer 1" xmlns="http://www.w3.org/2000/svg" viewBox="0 0 135.27 134.44"><defs><style>.cls-1{fill:#f9ed32;}</style></defs><title>Artboard 5 copy 2</title><path class="cls-1" d="M114.57,88.12l.23.57-.6.11a42,42,0,0,1-7.62.7,38.38,38.38,0,0,1-20.79-6l-.29-.18.07.31c1.91,9,.33,19.2-4.43,28.58l-.29.57-.49-.42A46.42,46.42,0,0,1,65.17,87.73l-.08-.38-.21.29a43.87,43.87,0,0,1-23.59,16.8l-.6.18,0-.63c-.74-10.6,2.11-20.69,7.82-27.68l.14-.17-.17,0a27.71,27.71,0,0,1-3.42.28h-.84c-.85,0-1.73,0-2.61-.1-.58,0-1.17-.1-1.78-.17s-1.16-.19-1.73-.3c-1.1-.21-2.26-.49-3.54-.86A28.77,28.77,0,0,1,31,73.76c-1.25-.54-2.39-1.08-3.48-1.66A46.46,46.46,0,0,1,21,67.6l-.49-.39.49-.39a45.32,45.32,0,0,1,6.59-4.5c1.1-.58,2.24-1.12,3.48-1.66a29.47,29.47,0,0,1,3.5-1.26,34.4,34.4,0,0,1,3.54-.86c.57-.11,1.13-.21,1.72-.3s1.21-.13,1.8-.17C42.71,58,43.87,58,45,58a31.72,31.72,0,0,1,3.42.29l.17,0-.14-.17c-5.71-7-8.56-17.08-7.82-27.68l0-.63.6.18a43.87,43.87,0,0,1,23.59,16.8l.21.29.08-.37A46.42,46.42,0,0,1,80.36,22l.49-.42.29.57c4.77,9.39,6.35,19.54,4.44,28.57l-.07.32.28-.18a39.17,39.17,0,0,1,28.41-5.28l.6.11-.23.56A38.7,38.7,0,0,1,111,53.41c-.66,1.07-1.39,2.12-2.14,3.12s-1.59,1.91-2.48,2.84a33.28,33.28,0,0,1-2.62,2.49c-.94.76-1.9,1.48-2.86,2.12a30.43,30.43,0,0,1-6.07,3.18l-.15.06.15,0a29.59,29.59,0,0,1,6.07,3.17c1,.66,1.95,1.38,2.86,2.13a31.26,31.26,0,0,1,2.62,2.48c.9,1,1.73,1.9,2.47,2.84s1.47,2,2.15,3.12A40.18,40.18,0,0,1,114.57,88.12Z"/></svg>