<svg id="Layer_1" data-name="Layer 1" xmlns="http://www.w3.org/2000/svg" viewBox="0 0 135.27 134.44"><defs><style>.cls-1{fill:#c49a6c;}.cls-2{fill:none;stroke:#231f20;stroke-miterlimit:10;}</style></defs><title>Artboard 5 copy</title><path class="cls-1" d="M26,102.66C19.9,95.62,23,83,33,74.41c8-6.89,18-9,24.72-5.9l47.94-41.3,6.77,7.85L64.45,76.36C66.54,83.49,63,93,55,99.93,45,108.49,32,109.71,26,102.66Z"/><path class="cls-2" d="M64.45,76.36C66.54,83.49,63,93,55,99.93,45,108.49,32,109.71,26,102.66S23,83,33,74.41c8-6.89,18-9,24.72-5.9l47.94-41.3,6.77,7.85Z"/></svg>